<svg width="32" height="32" viewBox="0 0 32 32" fill="none" xmlns="http://www.w3.org/2000/svg">
<path d="M15.1587 19.5345C13.6697 19.6159 12.1828 19.3423 10.8203 18.7363C9.43365 18.1141 8.36728 17.1956 8.02121 15.643C7.78121 14.5671 7.93469 13.5096 8.27039 12.4726C8.79247 10.8628 9.62654 9.43113 10.7323 8.15113C11.9676 6.7209 13.3264 5.4409 15.0497 4.61039C17.2097 3.5692 19.3859 3.47824 21.5655 4.55913C22.6565 5.10016 23.4265 5.98135 24.0651 6.98342C25.0876 8.59083 25.6787 10.3689 26.0766 12.2175C26.1934 12.7603 26.3483 13.2969 26.383 13.8548C26.495 15.6622 25.6461 16.9331 24.1391 17.8252C22.9107 18.5514 21.5542 18.9135 20.1643 19.1585C18.5939 19.4373 17.0076 19.5476 15.1587 19.5345ZM13.2268 13.0771C13.2339 14.1013 13.3788 14.8525 13.6562 15.4931C14.0775 16.4661 14.8159 16.9372 15.8739 16.9206C16.3815 16.9134 16.8821 16.8013 17.3442 16.5911C18.4405 16.0919 19.396 15.3725 20.2902 14.5763C20.8976 14.035 21.4458 13.4382 21.7845 12.68C22.1483 11.8652 22.1356 11.0744 21.5385 10.3772C20.7409 9.44624 19.8058 8.67883 18.6908 8.14283C16.8165 7.24239 14.9928 8.19587 14.1596 9.61394C13.4953 10.7467 13.2876 11.9914 13.2268 13.0771Z" fill="#59AD30"/>
<path d="M2.08409 26.2321C2.08409 25.8265 2.10276 25.4193 2.07757 25.0152C2.06009 24.7325 2.12469 24.638 2.43313 24.6428C2.92883 24.6508 3.41535 24.7696 3.91639 24.7192C4.9238 24.6182 5.49802 23.5666 4.96024 22.7678C4.67817 22.3491 4.24439 22.2143 3.77239 22.2111C3.31787 22.2081 2.86217 22.2431 2.40943 22.2756C2.20883 22.2902 2.10869 22.2353 2.1072 22.0202C2.1072 21.8294 2.08646 21.6857 2.3632 21.6496C3.08083 21.5559 3.79105 21.4976 4.50631 21.6641C5.42868 21.8789 5.91609 22.4196 5.92854 23.2605C5.94335 24.3435 5.44824 25.0706 4.53446 25.3106C4.0758 25.4312 3.6112 25.4291 3.14691 25.3678C2.95609 25.3432 2.90157 25.4016 2.90424 25.5894C2.91313 26.2386 2.90039 26.8878 2.91165 27.537C2.9152 27.7385 2.87431 27.822 2.64883 27.8196C2.08824 27.814 2.08794 27.8256 2.08794 27.2668L2.08409 26.2321Z" fill="#59AD30"/>
<path d="M23.2163 25.1439C23.9843 24.5335 24.5428 24.5721 24.9621 25.2755C25.1286 25.0977 25.2842 24.9104 25.51 24.8064C26.1577 24.5081 26.8759 24.9303 26.9268 25.6805C26.9719 26.3368 26.9488 26.9978 26.9597 27.6565C26.9642 27.9232 26.7663 27.7967 26.6554 27.8082C26.5446 27.8198 26.384 27.8832 26.3888 27.6464C26.4012 27.1495 26.3926 26.6521 26.3923 26.1549C26.3923 26.0535 26.3971 25.9513 26.3873 25.8509C26.347 25.4361 26.0931 25.1821 25.7354 25.1958C25.4148 25.2082 25.1156 25.5193 25.1067 25.8864C25.0937 26.4441 25.0842 27.0032 25.1097 27.5602C25.1218 27.8304 24.9888 27.8103 24.8042 27.8198C24.6 27.8304 24.5227 27.7821 24.531 27.5599C24.5491 27.0838 24.5366 26.6064 24.5366 26.1294C24.5366 26.0787 24.5366 26.0281 24.5366 25.9774C24.5251 25.4787 24.2996 25.1934 23.9227 25.1958C23.5556 25.1981 23.2543 25.5309 23.243 25.9807C23.23 26.4977 23.2403 27.0156 23.2394 27.533C23.2394 27.7753 22.9431 27.9321 22.7254 27.8082C22.6705 27.7786 22.675 27.7282 22.6747 27.679C22.6729 26.7658 22.6747 25.8527 22.667 24.9395C22.667 24.7872 22.7494 24.7644 22.8575 24.7898C22.9657 24.8153 23.1423 24.6832 23.1574 24.9187C23.1651 24.997 23.1408 25.0832 23.2163 25.1439Z" fill="#FEFEFE"/>
<path d="M7.07379 25.2175C7.37661 24.8199 7.85009 24.6326 8.21275 24.731C8.68683 24.859 8.94875 25.1621 9.02727 25.6495C9.13483 26.3153 9.05483 26.9828 9.07764 27.6504C9.08831 27.9585 8.84416 27.7769 8.72061 27.8074C8.60594 27.8371 8.46312 27.8611 8.47053 27.6332C8.48801 27.1061 8.47646 26.5781 8.47587 26.0504C8.47587 25.5114 8.22372 25.1799 7.80446 25.1997C7.40742 25.2184 7.04387 25.5668 7.06787 26.0516C7.09335 26.5677 7.05631 27.0886 7.0809 27.6036C7.09335 27.8676 6.93987 27.819 6.79646 27.811C6.65305 27.803 6.4729 27.8925 6.47587 27.6036C6.4889 26.2744 6.4889 24.9451 6.47587 23.6157C6.4735 23.3328 6.64357 23.3823 6.81483 23.3704C6.99913 23.3577 7.08505 23.3944 7.07794 23.6113C7.06194 24.1274 7.07379 24.6445 7.07379 25.2175Z" fill="#FEFEFE"/>
<path d="M20.2942 27.8941C19.4444 27.8924 18.8486 27.2441 18.8503 26.3238C18.8524 25.3688 19.4782 24.7036 20.365 24.714C21.1946 24.7238 21.7914 25.3703 21.8023 26.2704C21.8139 27.2038 21.1709 27.8962 20.2942 27.8941ZM21.2127 26.3015C21.2225 26.0411 21.1484 25.802 21.0249 25.5777C20.7333 25.047 19.9493 25.0082 19.6409 25.53C19.3499 26.0227 19.3354 26.554 19.6352 27.0521C19.957 27.5854 20.6355 27.5854 20.9896 27.0722C21.1493 26.8402 21.205 26.5777 21.2124 26.3015H21.2127Z" fill="#FEFEFE"/>
<path d="M11.7059 27.4874C11.2911 27.8972 10.8348 28.0009 10.3468 27.7837C10.0007 27.6299 9.86116 27.312 9.88338 26.9363C9.90916 26.5049 10.1613 26.2287 10.5397 26.069C10.8282 25.9483 11.1378 25.8862 11.4505 25.8862C11.6232 25.8862 11.6828 25.8352 11.6558 25.6563C11.6188 25.4083 11.4929 25.2504 11.2526 25.1902C10.9563 25.1161 10.6742 25.1718 10.3977 25.2924C10.3385 25.3185 10.23 25.4429 10.1903 25.2711C10.1652 25.1594 10.0179 25.0192 10.206 24.9289C10.6783 24.7025 11.1723 24.613 11.6662 24.84C12.1106 25.0432 12.2226 25.4548 12.2336 25.8989C12.2478 26.4661 12.2499 27.0335 12.249 27.6006C12.249 27.6741 12.3631 27.8376 12.1637 27.808C12.0244 27.7869 11.8037 27.9612 11.7489 27.6714C11.7417 27.6219 11.7275 27.5745 11.7059 27.4874ZM11.6837 26.5917C11.6244 26.5093 11.8037 26.2972 11.5441 26.2895C11.2606 26.2812 10.9812 26.3191 10.7317 26.4672C10.6124 26.5366 10.5226 26.6472 10.4789 26.7781C10.4353 26.909 10.4409 27.0513 10.4946 27.1784C10.6028 27.4379 10.8315 27.4776 11.0748 27.4483C11.4629 27.4012 11.6822 27.093 11.6837 26.5917Z" fill="#FEFEFE"/>
<path d="M13.7908 25.2174C14.1396 24.8468 14.499 24.6589 14.9431 24.728C15.4738 24.8103 15.8205 25.2302 15.8394 25.8299C15.8584 26.4296 15.8353 27.0266 15.8537 27.6243C15.8614 27.8708 15.7102 27.8201 15.5814 27.8109C15.4525 27.8017 15.2655 27.9057 15.2738 27.626C15.2892 27.1093 15.2827 26.592 15.2765 26.0749C15.2726 25.7434 15.2261 25.4192 14.8812 25.2563C14.4169 25.0364 13.8765 25.4213 13.8619 25.9881C13.8489 26.4948 13.8634 27.002 13.8554 27.5087C13.8539 27.608 13.9283 27.7623 13.7923 27.8003C13.6513 27.8397 13.4898 27.8213 13.3396 27.8053C13.2652 27.7976 13.2904 27.7072 13.2898 27.6506C13.2818 26.749 13.2762 25.8474 13.2676 24.9457C13.2676 24.8329 13.3067 24.7614 13.4252 24.7887C13.5437 24.816 13.7245 24.6865 13.7728 24.9072C13.7891 24.9828 13.7828 25.0631 13.7908 25.2174Z" fill="#FEFEFE"/>
<path d="M30.3185 25.9013C30.4302 25.6643 30.5375 25.4924 30.5923 25.3057C30.6788 25.0095 30.8515 24.8969 31.1499 24.9487C31.2281 24.9623 31.3105 24.9508 31.4518 24.9508C31.1949 25.3828 30.9698 25.784 30.7209 26.1697C30.6175 26.33 30.5988 26.4717 30.6495 26.65C30.7404 26.97 30.8071 27.2969 30.8924 27.6183C30.9345 27.7769 30.8942 27.8257 30.7247 27.829C30.2349 27.8394 30.237 27.8471 30.1701 27.3594C30.1511 27.2198 30.1185 27.082 30.0892 26.9274C29.9508 27.0432 29.9336 27.2124 29.8678 27.3523C29.613 27.8939 29.616 27.8954 28.9709 27.7875C29.1923 27.4157 29.3941 27.0435 29.6287 26.6933C29.7825 26.4634 29.8252 26.2489 29.7366 25.9849C29.6504 25.7274 29.6056 25.4566 29.5292 25.1952C29.4821 25.0326 29.4995 24.9549 29.6963 24.9469C30.1665 24.9283 30.165 24.92 30.2296 25.3665C30.2518 25.5215 30.2815 25.6755 30.3185 25.9013Z" fill="#A2CA7E"/>
<path d="M27.8816 27.8697C27.6075 27.9188 27.5184 27.8525 27.5954 27.5497C27.7293 27.0231 27.8144 26.483 27.9053 25.9476C27.9213 25.8534 28.0372 25.6646 27.7788 25.6765C27.6952 25.6803 27.5912 25.675 27.623 25.558C27.6561 25.4347 27.6075 25.2166 27.783 25.2163C28.0407 25.2163 28.0659 25.0723 28.1166 24.8848C28.2707 24.3162 28.7092 24.0027 29.2558 24.0459C29.3681 24.0548 29.5207 24.0593 29.4781 24.2134C29.4404 24.3494 29.5113 24.5926 29.2446 24.5891C29.0372 24.5864 28.9009 24.6756 28.8102 24.8557C28.6653 25.1455 28.6881 25.1817 29.0081 25.2039C29.0751 25.2083 29.2244 25.1301 29.1939 25.3034C29.1687 25.4457 29.2342 25.6922 28.9865 25.6664C28.6419 25.6302 28.5898 25.8092 28.5486 26.0812C28.4748 26.5692 28.3468 27.0495 28.2787 27.5381C28.244 27.8071 28.1536 27.9325 27.8816 27.8697Z" fill="#A2CA7E"/>
<path d="M17.0057 26.2349C17.0057 25.9813 16.995 25.7271 17.0095 25.474C17.0196 25.2962 16.9826 25.2047 16.7832 25.237C16.603 25.2666 16.512 25.2201 16.5147 24.9999C16.5171 24.7842 16.6199 24.7605 16.7763 24.7872C17.0045 24.826 17.0134 24.6983 17.0086 24.5265C17.0006 24.2598 17.2077 24.0758 17.4646 24.0974C17.606 24.1093 17.5437 24.2136 17.5467 24.2752C17.5704 24.7748 17.5683 24.7789 18.08 24.781C18.2463 24.781 18.3417 24.7946 18.3381 25.0041C18.3349 25.194 18.2789 25.2411 18.0928 25.2411C17.5509 25.2411 17.5503 25.2494 17.5506 25.7931C17.5506 26.1585 17.5461 26.5238 17.5541 26.8894C17.563 27.2986 17.6756 27.4017 18.0851 27.3931C18.1849 27.3911 18.2996 27.3528 18.2827 27.5253C18.27 27.6542 18.3526 27.8242 18.1316 27.8577C17.5322 27.9484 17.0083 27.8056 17.0072 26.9928C17.0058 26.7412 17.0053 26.4885 17.0057 26.2349Z" fill="#FEFEFE"/>
<path d="M13.2268 13.077C13.2875 11.9913 13.4953 10.7466 14.1595 9.61384C14.9915 8.19577 16.8164 7.24347 18.6908 8.14273C19.8058 8.67873 20.7409 9.44644 21.5385 10.3771C22.1355 11.0743 22.1483 11.8651 21.7844 12.6799C21.4461 13.437 20.8976 14.0337 20.2902 14.5762C19.396 15.3735 18.441 16.093 17.3441 16.591C16.8821 16.8012 16.3815 16.9134 15.8739 16.9205C14.8158 16.9371 14.0775 16.466 13.6561 15.493C13.3788 14.8524 13.2339 14.1013 13.2268 13.077ZM20.2917 12.2118C20.3255 11.9066 20.2659 11.5851 20.2241 11.2651C20.1435 10.6447 20.0191 10.0334 19.6757 9.49236C19.3758 9.02007 18.9527 8.77622 18.3927 8.88555C17.689 9.02303 17.0075 9.24466 16.4206 9.67962C15.6967 10.2168 15.4345 10.9869 15.6724 11.8453C15.98 12.9537 17.4798 14.1973 18.6324 14.2983C19.4081 14.3661 19.8807 14.0681 20.1436 13.335C20.2769 12.9765 20.3275 12.5926 20.2917 12.2118Z" fill="#010101"/>
<path d="M20.2915 12.2115C20.3273 12.5923 20.2767 12.9762 20.1433 13.3347C19.8802 14.0678 19.4076 14.3658 18.6322 14.298C17.4802 14.1969 15.9798 12.9534 15.6722 11.8449C15.4352 10.9857 15.6965 10.2153 16.4203 9.67932C17.0073 9.24435 17.6888 9.02272 18.3925 8.88524C18.9525 8.77591 19.3756 9.01976 19.6755 9.49206C20.0189 10.0331 20.1433 10.6444 20.2239 11.2648C20.2666 11.5851 20.3258 11.9063 20.2915 12.2115Z" fill="#FEFEFE"/>
</svg>
